o ButtonCollider
v 0.53871865767726657 0.25 0.89056676778456667
v -0.36038754716096766 0.25 1.1735534956470233
v -0.36038754716096766 0 1.1735534956470233
v 0.53871865767726657 0 0.89056676778456667
v -0.36038754716096766 0.25 0.17355349564702327
v -0.36038754716096766 0 0.17355349564702327
vn 0.2829867278624566 0 0.89910620483823422
vn -1 0 0
vn 0.7170132721375434 0 -0.89910620483823422
vn 0 1 0
vn 0 -1 0
g ButtonCollider
f 1//1 2//1 3//1 4//1
f 2//2 5//2 6//2 3//2
f 5//3 1//3 4//3 6//3
f 5//4 2//4 1//4
f 4//5 3//5 6//5
