o Button
v 0.53871865767726657 0 0.89056676778456667
v 0.41027491412894734 0 0.78813630033634618
v 0.31847588708650032 0.033735943356934618 0.83740774824566833
v 0.41027491412894757 0 0.93099344319348909
v 0.21415881090190103 0.056226572261557688 0.8863352260425259
v 0.28183117058062823 0 0.9714201186024114
v 0.10117539300350442 0.067471886713869222 0.93424192975202258
v 0.153387427032309 0 1.0118467940113336
v -0.016622659180334953 0.067471886713869236 0.98045105539926058
v 0.024943683483989898 0 1.052273469420256
v -0.1353836382212632 0.056226572261557695 1.024285799009343
v -0.10350006006432932 0 1.0927001448291784
v -0.25125583669092555 0.033735943356934625 1.0650693566073723
v -0.23194380361264844 0 1.1331268202381009
v -0.36038754716096766 0 1.1021249242184519
v -0.36038754716096766 0 1.1735534956470233
v 0.28183117058062823 0 0.6857058328881257
v 0.21415881090190125 0.056226572261557695 0.73812317154142537
v 0.13043767027169728 0.093710953769262792 0.79202179884580715
v 0.035482382975459525 0.11245314452311535 0.84588634587715483
v -0.0658924167013687 0.11245314452311538 0.89820144371135224
v -0.16887209447334473 0.0937109537692628 0.94745172342428319
v -0.26864201605502536 0.056226572261557695 0.99212181609183125
v -0.36038754716096766 0 1.0306963527898805
v 0.153387427032309 0 0.58327536543990521
v 0.1011753930035047 0.067471886713869222 0.63567585609223809
v 0.035482382975459636 0.11245314452311536 0.69231937973209612
v -0.039839895623471455 0.13494377342773845 0.7509226588913952
v -0.12093973536493402 0.13494377342773845 0.80920241610205057
v -0.20396542882057395 0.11245314452311538 0.86487537389597768
v -0.28506526856203662 0.067471886713869236 0.915658254805092
v -0.36038754716096766 0 0.959267781361309
v 0.024943683483989842 0 0.48084489799168462
v -0.016622659180334953 0.067471886713869222 0.53260194490958379
v -0.06589241670136875 0.11245314452311533 0.59106751142123493
v -0.12093973536493416 0.13494377342773842 0.65349348529940876
v -0.17983876145685387 0.13494377342773845 0.71713175431687559
v -0.2406636412629509 0.11245314452311536 0.77923420624640582
v -0.30148852106904789 0.067471886713869222 0.83705272886076965
v -0.36038754716096766 0 0.88783920993273746
v -0.10350006006432932 0 0.37841443054346419
v -0.13538363822126312 0.056226572261557674 0.43143758100494006
v -0.16887209447334475 0.093710953769262778 0.492105736633065
v -0.20396542882057397 0.11245314452311533 0.55774144160586037
v -0.24066364126295087 0.11245314452311535 0.62566724010134722
v -0.27896673180047549 0.093710953769262792 0.69320567629754637
v -0.3188747004331477 0.056226572261557681 0.757679294372479
v -0.36038754716096766 0 0.81641063850416618
v -0.23194380361264846 0 0.27598396309524376
v -0.25125583669092549 0.033735943356934611 0.3347189073897846
v -0.26864201605502536 0.056226572261557681 0.39927359808742829
v -0.28506526856203662 0.067471886713869222 0.46780914431541509
v -0.30148852106904789 0.067471886713869222 0.538486655200985
v -0.3188747004331477 0.056226572261557688 0.6094672398713783
v -0.33818673351142475 0.033735943356934618 0.67891200745383484
v -0.36038754716096766 0 0.74498206707559478
v -0.36038754716096766 0 0.17355349564702327
v -0.36038754716096766 0 0.2449820670755947
v -0.36038754716096766 0 0.31641063850416612
v -0.36038754716096766 0 0.38783920993273752
v -0.36038754716096766 0 0.45926778136130897
v -0.36038754716096766 0 0.53069635278988037
v -0.36038754716096766 0 0.60212492421845187
v -0.36038754716096766 0 0.67355349564702327
vn 0 1 0
vn 0.20717734077410763 0.94317844484236679 -0.25979216819316109
vn 0.27559742924554165 0.96127314380109918 2.1909316272237762E-17
vn 0.08329058129496851 0.96074610582946252 0.26463106242667261
vn 0.26177100395204456 0.92831790817285664 0.2640109900278968
vn 0.14550572584244606 0.87470320326399209 0.462301189644559
vn 0.22003201851981671 0.87301866059312561 0.43522905358245562
vn 0.18047044574385812 0.79915765511917047 0.573391193233243
vn 0.15791173005133363 0.83961859166608477 0.51971579352647646
vn 0.192167092663857 0.768307133519572 0.6105538117807956
vn 0.065132058263851919 0.85160492771632035 0.52012196846085557
vn 0.18034653428161077 0.79946794242517361 0.5729975013968831
vn -0.09407978917232783 0.91608924608010922 0.38978133162796214
vn 0.1292687296273522 0.90255440793256259 0.41071296091313214
vn -0.29534082198729394 0.95539196085578915 0
vn 0.34918284668847338 0.82846164584870829 -0.43786144033950236
vn 0.37401131274551058 0.89205021863669676 -0.25369656160185017
vn 0.3001721445252486 0.9538850473988536 3.91273265879127E-16
vn 0.19953305997114937 0.95934559063058855 0.19960610140022506
vn 0.075320812736789949 0.94254422171064556 0.32547989997623972
vn -0.088054318999778419 0.92690604321869474 0.36481724733097309
vn -0.322340841931878 0.90509580066357176 0.27730483811829904
vn -0.52253125412873125 0.85262013139419557 0
vn 0.42156774967949368 0.73677117305241435 -0.528629237735804
vn 0.40345664425077615 0.81887956225870617 -0.40823889908348077
vn 0.28906991368484136 0.937235987189307 -0.1950058699617104
vn 0.14231808436355881 0.98982097515817824 -5.7676119859237549E-17
vn -0.034954674898965539 0.98884033130071058 0.1448204747119986
vn -0.25065228865779071 0.94453198046802012 0.21220925536783541
vn -0.50628079475833621 0.84573265284348187 0.16857056911926868
vn -0.667224614395612 0.7448565727337223 0
vn 0.44445060260697883 0.70132321989033586 -0.55732342771943921
vn 0.38250627822550132 0.78562508175228518 -0.48629433272431904
vn 0.22701618048031455 0.92055028044705789 -0.31788493982724697
vn 0.034954674898965615 0.98884033130071058 -0.14482047471199888
vn -0.18462473601540388 0.98280908972762471 -6.9065908250136922E-17
vn -0.41858700866655069 0.90426938926500788 0.084153358898373776
vn -0.64126343205838243 0.76282528247403425 0.082938526169171911
vn -0.75334461141300246 0.65762595482157793 0
vn 0.42132169014797322 0.73713315157559123 -0.52832068884257388
vn 0.30207997307931123 0.813547591914399 -0.49687826029590515
vn 0.088054318999778419 0.92690604321869474 -0.36481724733097315
vn -0.15133629900157974 0.96444084624385928 -0.21668220670127317
vn -0.38423128287426156 0.91926476780754318 -0.085548862812680426
vn -0.58372074508976268 0.81195448871956633 -7.8325656343613188E-17
vn -0.73683511192554774 0.67553797233338675 0.026878723358108404
vn -0.80449011113701752 0.59396604371188533 0
vn 0.31363778989397767 0.86426548281017446 -0.3932893489192365
vn 0.094079789172327857 0.91608924608010933 -0.38978133162796175
vn -0.19527171399638177 0.937724240020416 -0.287301596568917
vn -0.44198189496689283 0.87971939585182513 -0.17534477204517496
vn -0.61676271263672144 0.78253744562507144 -0.085081740083177065
vn -0.73081857580245579 0.68203210057190766 -0.027137115755759028
vn -0.80449011113701741 0.59396604371188544 1.3323954323400848E-17
vn -0.83534756223797035 0.5497221573332115 0
vn -0.29534082198729361 0.95539196085578915 0
vn -0.52253125412873114 0.85262013139419557 0
vn -0.66722461439561187 0.74485657273372241 0
vn -0.75334461141300257 0.657625954821578 0
vn -0.80449011113701741 0.59396604371188533 0
vn 0 0 0
g Button
f 1//1 2//2 3//3 4//4
f 4//4 3//3 5//5 6//6
f 6//6 5//5 7//7 8//8
f 8//8 7//7 9//9 10//10
f 10//10 9//9 11//11 12//12
f 12//12 11//11 13//13 14//14
f 14//14 13//13 15//15 16//1
f 2//2 17//16 18//17 3//3
f 3//3 18//17 19//18 5//5
f 5//5 19//18 20//19 7//7
f 7//7 20//19 21//20 9//9
f 9//9 21//20 22//21 11//11
f 11//11 22//21 23//22 13//13
f 13//13 23//22 24//23 15//15
f 17//16 25//24 26//25 18//17
f 18//17 26//25 27//26 19//18
f 19//18 27//26 28//27 20//19
f 20//19 28//27 29//28 21//20
f 21//20 29//28 30//29 22//21
f 22//21 30//29 31//30 23//22
f 23//22 31//30 32//31 24//23
f 25//24 33//32 34//33 26//25
f 26//25 34//33 35//34 27//26
f 27//26 35//34 36//35 28//27
f 28//27 36//35 37//36 29//28
f 29//28 37//36 38//37 30//29
f 30//29 38//37 39//38 31//30
f 31//30 39//38 40//39 32//31
f 33//32 41//40 42//41 34//33
f 34//33 42//41 43//42 35//34
f 35//34 43//42 44//43 36//35
f 36//35 44//43 45//44 37//36
f 37//36 45//44 46//45 38//37
f 38//37 46//45 47//46 39//38
f 39//38 47//46 48//47 40//39
f 41//40 49//48 50//49 42//41
f 42//41 50//49 51//50 43//42
f 43//42 51//50 52//51 44//43
f 44//43 52//51 53//52 45//44
f 45//44 53//52 54//53 46//45
f 46//45 54//53 55//54 47//46
f 47//46 55//54 56//55 48//47
f 49//48 57//1 58//56 50//49
f 50//49 58//56 59//57 51//50
f 51//50 59//57 60//58 52//51
f 52//51 60//58 61//59 53//52
f 53//52 61//59 62//60 54//53
f 54//53 62//60 63//55 55//54
f 55//54 63//55 64//61 56//55
